PathFileType	3	(X/Y/Z)	D:\Vicon Setup\UG\Test1\New Session\NewSession14.trc
DataRate	CameraRate	NumFrames	NumMarkers	Units	OrigDataRate	OrigDataStartFrame	OrigNumFrames
100.0	100.0	10	27	mm	100.0	441	173	
Frame#	Time	Sternum			LShoulder			RShoulder			LASIS			RASIS			RPSIS			LPSIS			RKneeLateral			RKneeMedial			RFibulaHead			RMidShank			RAnkleLateral			RAnkleMedial			RHeel			RMT5			RMT2			RToe			LKneeLateral			LKneeMedial			LFibulaHead			LMidShank			LAnkleLateral			LAnkleMedial			LHeel			LMT5			LMT2			LToe			
		X1	Y1	Z1	X2	Y2	Z2	X3	Y3	Z3	X4	Y4	Z4	X5	Y5	Z5	X6	Y6	Z6	X7	Y7	Z7	X8	Y8	Z8	X9	Y9	Z9	X10	Y10	Z10	X11	Y11	Z11	X12	Y12	Z12	X13	Y13	Z13	X14	Y14	Z14	X15	Y15	Z15	X16	Y16	Z16	X17	Y17	Z17	X18	Y18	Z18	X19	Y19	Z19	X20	Y20	Z20	X21	Y21	Z21	X22	Y22	Z22	X23	Y23	Z23	X24	Y24	Z24	X25	Y25	Z25	X26	Y26	Z26	X27	Y27	Z27	
441	4.4	-193.92841	1313.8331	-2165.0303	-388.62411	1397.7875	-2086.908	-15.985522	1361.5349	-2069.2646	-340.36661	938.85358	-2085.1375	-78.896446	964.24908	-2081.7539	-161.00241	983.03058	-1904.1993	-289.52716	973.08948	-1905.271	-69.33786	496.70782	-2117.8945	-202.22501	488.92944	-2119.4119	-72.263901	414.62915	-2106.7683	-172.13193	264.1467	-2066.3379	-125.52024	94.706268	-1952.0358	-210.74989	117.90826	-1999.0775	-186.04919	66.518272	-1875.8088	-88.650787	30.259495	-2094.7703	-157.62752	56.295368	-2102.7031	-157.94113	39.701607	-2147.6082	-381.3002	487.70612	-2146.6396	-252.3826	465.06085	-2161.6963	-385.24133	461.50665	-2105.6072	-301.01459	364.51279	-1996.0293	-346.01828	332.92822	-1781.5205	-268.28403	301.33667	-1818.6552	-280.05072	398.24316	-1756.3922				-310.56952	180.35606	-1759.9116	-368.80029	193.83975	-1716.0647
442	4.41	-195.77367	1312.9435	-2193.7927	-389.8613	1396.2002	-2113.2178	-16.604292	1359.6125	-2100.8293	-341.26242	938.64819	-2110.7229	-79.15976	963.87097	-2109.9375	-158.89214	984.60699	-1931.708	-288.41275	973.56244	-1931.439	-68.493141	491.88116	-2132.0994	-200.72708	482.94171	-2135.9331	-71.709846	410.27338	-2117.8987	-172.39609	262.22433	-2072.2859	-125.73985	95.956688	-1953.3652	-211.15964	118.33109	-2001.0953	-186.75131	68.581833	-1876.8104	-88.486443	30.032522	-2094.667	-157.32812	56.234657	-2102.9722	-157.79047	39.326313	-2147.6843	-382.54813	494.414	-2192.5129	-253.33482	472.51132	-2209.2866	-386.03275	468.31607	-2153.2354	-303.43625	366.73383	-2048.377	-347.62805	327.01663	-1833.9735	-268.73029	299.04779	-1871.7758	-282.60831	390.32559	-1802.3239				-312.35382	173.01241	-1823.6234	-371.41888	182.64091	-1779.7465
443	4.42	-198.10355	1314.1125	-2222.5981	-391.09961	1396.8367	-2138.7527	-17.018806	1359.7321	-2132.5298	-342.33316	940.20874	-2136.1963	-79.515495	962.21729	-2138.0037	-157.29398	986.05798	-1959.3785	-287.47934	975.34454	-1958.3147	-67.784492	488.68298	-2141.3582	-198.5898	476.8855	-2153.5874	-71.046684	406.96616	-2126.3696	-172.3615	260.93228	-2077.8459	-126.41701	97.87149	-1954.7042	-211.95238	119.32392	-2003.4297	-187.17149	71.500168	-1877.9779	-88.287819	29.773037	-2094.2146	-157.27525	56.013565	-2103.1953	-157.70782	39.181332	-2147.9641	-383.39551	503.3638	-2236.5637	-254.41583	481.56293	-2255.2605	-386.76105	476.5307	-2199.4048	-305.96115	369.51004	-2100.3069	-348.70892	320.16537	-1886.4878	-269.9126	294.66306	-1926.2368	-283.67828	379.94275	-1848.4323				-314.59412	165.28043	-1888.6185	-374.39359	171.30606	-1845.1151
444	4.43	-201.01729	1316.715	-2251.3752	-392.03226	1399.4503	-2163.7292	-18.017395	1361.6219	-2164.7283	-342.41238	943.51471	-2162.8281	-79.113274	962.06201	-2165.4509	-156.72934	988.06219	-1987.1067	-286.56662	977.9397	-1985.748	-67.397179	486.89792	-2147.7812	-197.91963	471.50232	-2168.4519	-70.700516	405.34735	-2132.9932	-172.22043	260.96753	-2082.9097	-126.38719	100.23447	-1956.3102	-211.90881	120.9547	-2005.585	-187.17302	75.42437	-1878.9135	-88.200127	29.655281	-2094.4275	-157.08783	55.843132	-2103.5735	-157.5773	38.934334	-2147.9683	-384.14969	513.91943	-2279.1614	-255.27548	492.39215	-2299.981	-387.44037	485.69763	-2243.717	-308.18088	372.53003	-2151.5664	-348.85953	311.35239	-1939.4767	-270.87103	288.19476	-1981.3245	-283.73914	367.29144	-1895.9966				-317.17917	156.73247	-1954.1804	-377.39282	160.47043	-1911.6882
445	4.44	-204.15765	1320.098	-2279.8279	-392.84595	1403.6444	-2188.3691	-19.329639	1365.0455	-2197.4106	-342.93909	947.29517	-2189.5723	-79.258125	963.48474	-2193.3745	-156.03778	991.3053	-2015.4749	-285.94452	981.47534	-2013.6016	-67.413246	486.97681	-2153.1511	-197.03789	469.83588	-2180.4031	-70.620918	406.27112	-2138.7734	-172.14517	262.65594	-2087.7488	-125.90906	103.5247	-1958.1714	-211.49561	123.43341	-2008.3616	-186.71362	80.643173	-1881.0402	-87.889091	29.240284	-2094.4348	-156.67172	55.857216	-2104.0647	-157.47694	38.850967	-2147.7834	-384.85559	525.13739	-2320.2024	-256.27374	504.71179	-2342.5798	-388.12921	495.24289	-2286.1794	-309.78876	375.40314	-2201.8601	-349.47363	301.27518	-1992.9976	-271.66602	279.59961	-2037.0148	-282.82874	352.3371	-1945.5121				-320.5181	148.15562	-2020.5603	-380.17438	149.5786	-1977.8622
446	4.45	-207.48206	1324.6138	-2308.4292	-393.69287	1409.1183	-2212.8147	-20.69434	1369.9963	-2230.1523	-342.6893	952.55023	-2217.0793	-78.831047	966.07874	-2223.6909	-155.66583	995.63544	-2044.9214	-285.75958	986.099	-2041.9233	-68.064598	490.22876	-2159.2419	-198.07295	472.27106	-2186.3704	-70.845116	409.77261	-2144.6985	-171.97012	266.19482	-2092.3103	-125.46267	107.90876	-1961.0753	-210.80548	126.84631	-2010.6539	-186.05374	87.965973	-1883.9706	-87.548004	28.785213	-2094.4927	-156.3194	55.850395	-2105.0215	-157.50217	38.580479	-2147.5347	-385.42697	536.65131	-2359.614	-257.22241	518.01434	-2383.2263	-388.42987	504.44156	-2326.8291	-310.44604	378.38968	-2251.4814	-349.68152	289.95978	-2047.2197	-272.07898	270.20059	-2094.0559	-281.0976	335.66605	-1996.7356				-323.94379	139.10175	-2087.4353	-383.07321	138.0419	-2043.7009
447	4.46	-210.87706	1330.3417	-2336.9641	-394.36481	1415.5027	-2237.4321	-22.338411	1376.2527	-2262.8435	-342.07629	958.54315	-2245.3003	-79.21817	969.62006	-2252.7493	-155.80086	1000.7238	-2074.4468	-285.84531	991.72607	-2070.6323	-69.141594	496.43942	-2169.0962	-200.01146	477.8894	-2191.0952	-71.31456	415.6109	-2151.4199	-171.69815	271.6442	-2098.3774	-124.6662	113.32584	-1965.0287	-209.66339	131.55013	-2015.1022	-185.0209	97.303169	-1887.7625	-87.56942	28.249346	-2094.9805	-156.07278	55.170208	-2105.8198	-157.50752	38.897114	-2147.5918	-385.76163	548.25739	-2397.2446	-257.94666	531.70404	-2421.2156	-388.44479	512.83484	-2365.8359	-310.39706	380.15292	-2299.5039	-348.80014	277.00616	-2102.4353	-272.02509	260.19601	-2152.6714	-278.65231	317.53937	-2049.1453				-327.25687	130.18855	-2155.104	-385.77881	126.3611	-2110.2014
448	4.47	-214.33101	1337.2821	-2365.6421	-394.78705	1422.411	-2262.4712	-24.200287	1383.4601	-2295.354	-341.1402	965.06207	-2274.5901	-79.258316	973.9339	-2282.0525	-155.9931	1006.6268	-2104.4697	-286.08777	998.0976	-2099.9124	-70.202789	502.95715	-2181.5525	-201.13425	485.46216	-2197.7727	-71.978088	423.25308	-2159.4546	-171.34224	278.80704	-2105.2957	-123.70811	119.6662	-1970.1947	-208.10649	137.34885	-2021.2488	-183.91832	108.61035	-1893.0508	-87.424438	27.681984	-2095.1592	-155.77467	54.792324	-2107.5637	-157.69109	38.742565	-2147.093	-385.86853	559.43933	-2432.9846	-258.29727	545.34784	-2457.0254	-388.67868	519.85254	-2403.7419	-309.59573	382.34299	-2346.6167	-348.345	263.74124	-2158.2439	-271.62	250.36774	-2210.6521	-276.49057	298.2648	-2103.0969				-329.87094	121.77055	-2223.844	-387.98969	115.12846	-2178.4583
449	4.48	-217.653	1345.1219	-2394.4199	-395.47885	1429.9633	-2287.9277	-26.232401	1391.4738	-2327.6145	-340.84531	972.15082	-2303.4812	-79.996941	978.96454	-2312.3545	-156.05289	1013.2642	-2135.0789	-286.2724	1005.0449	-2129.5669	-71.255692	510.61124	-2194.3438	-203.79951	493.92764	-2206.842	-72.715179	432.34781	-2169.0642	-170.78558	287.23868	-2114.189	-122.61459	127.76884	-1977.1744	-205.85175	143.82562	-2029.3171	-182.20203	122.13066	-1900.5648	-87.36879	27.230967	-2095.9319	-155.34633	54.427841	-2110.1777	-157.85103	38.892704	-2147.2043	-385.63086	569.56366	-2466.9597	-258.26978	559.0213	-2491.0049	-389.09647	525.40082	-2440.812	-308.30283	384.27182	-2393.7769	-347.55609	249.66498	-2215.6797	-271.27771	240.01251	-2269.1477	-274.75836	278.09769	-2158.1411				-331.50168	114.21265	-2294.0896	-389.44882	104.30825	-2248.7437
450	4.49	-220.99786	1353.583	-2423.0522	-396.53235	1438.0317	-2313.7175	-28.436092	1400.0209	-2359.604	-340.91959	979.40729	-2332.9663	-81.012733	984.0025	-2343.0884	-156.40074	1020.4243	-2166.158	-286.45319	1012.6748	-2159.4604	-72.271133	520.55029	-2208.0637	-205.79727	502.68393	-2220.3679	-73.056252	443.00974	-2180.3223	-170.14359	296.53223	-2125.1704	-121.1717	137.08759	-1986.8838	-203.68947	150.64386	-2039.3417	-181.00278	137.09561	-1911.1202	-87.352409	26.77817	-2097.1326	-155.46866	54.106487	-2112.8579	-157.88901	39.13636	-2147.7017	-385.31476	578.2536	-2499.2078	-258.55429	571.71216	-2522.9067	-389.38916	529.80939	-2476.6375	-307.29211	385.64111	-2439.0754	-347.31674	235.33716	-2274.2227	-270.76044	229.81458	-2327.5295	-274.35385	257.54944	-2214.115				-331.58368	107.39987	-2364.8035	-390.06528	94.040092	-2320.9351
